<svg width="260" height="64" viewBox="0 0 260 64" fill="none" xmlns="http://www.w3.org/2000/svg">
<rect x="1" y="1" width="258" height="62" rx="15" fill="#FEFBF6" fill-opacity="0.05" stroke="#FEFBF6" stroke-width="2"/>
<path fill-rule="evenodd" clip-rule="evenodd" d="M224 38V26H224.262C224.257 26.5329 224.466 27.0764 224.938 27.4957L231.893 33.6696C232.133 33.8825 232.442 34 232.763 34C233.074 34 233.375 33.8893 233.612 33.6877L240.858 27.5234C241.353 27.1025 241.571 26.5461 241.566 26H242L242 38H224ZM239.562 26L226.266 26L232.773 31.776L239.562 26ZM239.562 24H242C243.105 24 244 24.8954 244 26V38C244 39.1046 243.105 40 242 40H224C222.895 40 222 39.1046 222 38V26C222 24.8954 222.895 24 224 24H226.266H239.562Z" fill="#FEFBF6"/>
<path d="M24.24 33.136H19.184V38H17.376V26.832H19.184V31.536H24.24V26.832H26.048V38H24.24V33.136ZM34.8459 38C34.3872 38 34.0352 37.872 33.7899 37.616C33.5445 37.3493 33.3952 37.0133 33.3419 36.608H33.2619C33.1019 37.1307 32.8085 37.5253 32.3819 37.792C31.9552 38.0587 31.4379 38.192 30.8299 38.192C29.9659 38.192 29.2992 37.968 28.8299 37.52C28.3712 37.072 28.1419 36.4693 28.1419 35.712C28.1419 34.88 28.4405 34.256 29.0379 33.84C29.6459 33.424 30.5312 33.216 31.6939 33.216H33.1979V32.512C33.1979 32 33.0592 31.6053 32.7819 31.328C32.5045 31.0507 32.0725 30.912 31.4859 30.912C30.9952 30.912 30.5952 31.0187 30.2859 31.232C29.9765 31.4453 29.7152 31.7173 29.5019 32.048L28.4619 31.104C28.7392 30.6347 29.1285 30.2507 29.6299 29.952C30.1312 29.6427 30.7872 29.488 31.5979 29.488C32.6752 29.488 33.5019 29.7387 34.0779 30.24C34.6539 30.7413 34.9419 31.4613 34.9419 32.4V36.576H35.8219V38H34.8459ZM31.3259 36.864C31.8699 36.864 32.3179 36.7467 32.6699 36.512C33.0219 36.2667 33.1979 35.9413 33.1979 35.536V34.336H31.7259C30.5205 34.336 29.9179 34.7093 29.9179 35.456V35.744C29.9179 36.1173 30.0405 36.4 30.2859 36.592C30.5419 36.7733 30.8885 36.864 31.3259 36.864ZM37.6111 29.68H44.4431V38H42.6991V31.104H39.3551V38H37.6111V29.68ZM47.0192 29.68H48.7312V33.744L48.5712 35.712H48.6352L49.6272 33.936L52.5073 29.68H54.0913V38H52.3793V33.936L52.5392 31.968H52.4753L51.4833 33.744L48.6032 38H47.0192V29.68ZM59.8777 38.192C59.2804 38.192 58.7471 38.0907 58.2777 37.888C57.8084 37.6853 57.4137 37.3973 57.0937 37.024C56.7737 36.64 56.5284 36.1813 56.3577 35.648C56.1871 35.104 56.1017 34.5013 56.1017 33.84C56.1017 33.1787 56.1871 32.5813 56.3577 32.048C56.5284 31.504 56.7737 31.0453 57.0937 30.672C57.4137 30.288 57.8084 29.9947 58.2777 29.792C58.7471 29.5893 59.2804 29.488 59.8777 29.488C60.7098 29.488 61.3924 29.6747 61.9257 30.048C62.4591 30.4213 62.8484 30.9173 63.0938 31.536L61.6537 32.208C61.5364 31.824 61.3284 31.52 61.0297 31.296C60.7417 31.0613 60.3577 30.944 59.8777 30.944C59.2377 30.944 58.7524 31.1467 58.4217 31.552C58.1017 31.9467 57.9417 32.464 57.9417 33.104V34.592C57.9417 35.232 58.1017 35.7547 58.4217 36.16C58.7524 36.5547 59.2377 36.752 59.8777 36.752C60.3898 36.752 60.7951 36.6293 61.0938 36.384C61.4031 36.128 61.6484 35.792 61.8298 35.376L63.1578 36.08C62.8804 36.7627 62.4644 37.2853 61.9097 37.648C61.3551 38.0107 60.6777 38.192 59.8777 38.192ZM70.994 38C70.5353 38 70.1833 37.872 69.938 37.616C69.6927 37.3493 69.5433 37.0133 69.49 36.608H69.41C69.25 37.1307 68.9567 37.5253 68.53 37.792C68.1033 38.0587 67.586 38.192 66.978 38.192C66.114 38.192 65.4473 37.968 64.978 37.52C64.5193 37.072 64.29 36.4693 64.29 35.712C64.29 34.88 64.5887 34.256 65.186 33.84C65.794 33.424 66.6793 33.216 67.842 33.216H69.346V32.512C69.346 32 69.2073 31.6053 68.93 31.328C68.6527 31.0507 68.2207 30.912 67.634 30.912C67.1433 30.912 66.7433 31.0187 66.434 31.232C66.1247 31.4453 65.8633 31.7173 65.65 32.048L64.61 31.104C64.8873 30.6347 65.2767 30.2507 65.778 29.952C66.2793 29.6427 66.9353 29.488 67.746 29.488C68.8233 29.488 69.65 29.7387 70.226 30.24C70.802 30.7413 71.09 31.4613 71.09 32.4V36.576H71.97V38H70.994ZM67.474 36.864C68.018 36.864 68.466 36.7467 68.818 36.512C69.17 36.2667 69.346 35.9413 69.346 35.536V34.336H67.874C66.6687 34.336 66.066 34.7093 66.066 35.456V35.744C66.066 36.1173 66.1887 36.4 66.434 36.592C66.69 36.7733 67.0367 36.864 67.474 36.864ZM75.1904 31.104H72.5344V29.68H79.5904V31.104H76.9344V38H75.1904V31.104ZM81.2455 29.68H82.9575V33.744L82.7975 35.712H82.8615L83.8535 33.936L86.7335 29.68H88.3175V38H86.6055V33.936L86.7655 31.968H86.7015L85.7095 33.744L82.8295 38H81.2455V29.68ZM94.7493 29.68H96.4933V31.056H96.5733C96.7546 30.5547 97.0479 30.1707 97.4533 29.904C97.8693 29.6267 98.3546 29.488 98.9093 29.488C99.9653 29.488 100.781 29.872 101.357 30.64C101.933 31.3973 102.221 32.464 102.221 33.84C102.221 35.216 101.933 36.288 101.357 37.056C100.781 37.8133 99.9653 38.192 98.9093 38.192C98.3546 38.192 97.8693 38.0533 97.4533 37.776C97.0479 37.4987 96.7546 37.1147 96.5733 36.624H96.4933V41.2H94.7493V29.68ZM98.3813 36.688C98.9893 36.688 99.4746 36.496 99.8373 36.112C100.2 35.7173 100.381 35.2 100.381 34.56V33.12C100.381 32.48 100.2 31.968 99.8373 31.584C99.4746 31.1893 98.9893 30.992 98.3813 30.992C97.8479 30.992 97.3999 31.1253 97.0373 31.392C96.6746 31.648 96.4933 31.9893 96.4933 32.416V35.264C96.4933 35.6907 96.6746 36.0373 97.0373 36.304C97.3999 36.56 97.8479 36.688 98.3813 36.688ZM107.562 38.192C106.986 38.192 106.458 38.0907 105.978 37.888C105.509 37.6853 105.109 37.3973 104.778 37.024C104.447 36.64 104.191 36.1813 104.01 35.648C103.829 35.104 103.738 34.5013 103.738 33.84C103.738 33.1787 103.829 32.5813 104.01 32.048C104.191 31.504 104.447 31.0453 104.778 30.672C105.109 30.288 105.509 29.9947 105.978 29.792C106.458 29.5893 106.986 29.488 107.562 29.488C108.138 29.488 108.661 29.5893 109.13 29.792C109.61 29.9947 110.015 30.288 110.346 30.672C110.677 31.0453 110.933 31.504 111.114 32.048C111.295 32.5813 111.386 33.1787 111.386 33.84C111.386 34.5013 111.295 35.104 111.114 35.648C110.933 36.1813 110.677 36.64 110.346 37.024C110.015 37.3973 109.61 37.6853 109.13 37.888C108.661 38.0907 108.138 38.192 107.562 38.192ZM107.562 36.752C108.159 36.752 108.639 36.5707 109.002 36.208C109.365 35.8347 109.546 35.28 109.546 34.544V33.136C109.546 32.4 109.365 31.8507 109.002 31.488C108.639 31.1147 108.159 30.928 107.562 30.928C106.965 30.928 106.485 31.1147 106.122 31.488C105.759 31.8507 105.578 32.4 105.578 33.136V34.544C105.578 35.28 105.759 35.8347 106.122 36.208C106.485 36.5707 106.965 36.752 107.562 36.752ZM115.907 38.192C115.075 38.192 114.393 38.0533 113.859 37.776C113.326 37.4987 112.867 37.104 112.483 36.592L113.619 35.552C113.875 35.9253 114.19 36.2187 114.563 36.432C114.947 36.6453 115.395 36.752 115.907 36.752C116.505 36.752 116.942 36.6453 117.219 36.432C117.507 36.2187 117.651 35.9413 117.651 35.6V35.408C117.651 35.0667 117.534 34.8107 117.299 34.64C117.075 34.4587 116.75 34.368 116.323 34.368H114.531V33.088H116.147C116.574 33.088 116.899 33.008 117.123 32.848C117.358 32.6773 117.475 32.432 117.475 32.112V31.936C117.475 31.6267 117.347 31.3813 117.091 31.2C116.835 31.0187 116.43 30.928 115.875 30.928C115.374 30.928 114.947 31.0293 114.595 31.232C114.243 31.4347 113.961 31.7067 113.747 32.048L112.659 31.104C112.979 30.6133 113.406 30.224 113.939 29.936C114.483 29.6373 115.166 29.488 115.987 29.488C117.097 29.488 117.918 29.696 118.451 30.112C118.995 30.5173 119.267 31.0613 119.267 31.744C119.267 32.2773 119.129 32.6933 118.851 32.992C118.574 33.28 118.158 33.4773 117.603 33.584V33.664C118.211 33.7387 118.67 33.9413 118.979 34.272C119.299 34.6027 119.459 35.0293 119.459 35.552C119.459 36.3733 119.139 37.0187 118.499 37.488C117.87 37.9573 117.006 38.192 115.907 38.192ZM121.614 29.68H123.358V31.056H123.438C123.62 30.5547 123.913 30.1707 124.318 29.904C124.734 29.6267 125.22 29.488 125.774 29.488C126.83 29.488 127.646 29.872 128.222 30.64C128.798 31.3973 129.086 32.464 129.086 33.84C129.086 35.216 128.798 36.288 128.222 37.056C127.646 37.8133 126.83 38.192 125.774 38.192C125.22 38.192 124.734 38.0533 124.318 37.776C123.913 37.4987 123.62 37.1147 123.438 36.624H123.358V41.2H121.614V29.68ZM125.246 36.688C125.854 36.688 126.34 36.496 126.702 36.112C127.065 35.7173 127.246 35.2 127.246 34.56V33.12C127.246 32.48 127.065 31.968 126.702 31.584C126.34 31.1893 125.854 30.992 125.246 30.992C124.713 30.992 124.265 31.1253 123.902 31.392C123.54 31.648 123.358 31.9893 123.358 32.416V35.264C123.358 35.6907 123.54 36.0373 123.902 36.304C124.265 36.56 124.713 36.688 125.246 36.688ZM134.427 38.192C133.851 38.192 133.323 38.0907 132.843 37.888C132.374 37.6853 131.974 37.3973 131.643 37.024C131.312 36.64 131.056 36.1813 130.875 35.648C130.694 35.104 130.603 34.5013 130.603 33.84C130.603 33.1787 130.694 32.5813 130.875 32.048C131.056 31.504 131.312 31.0453 131.643 30.672C131.974 30.288 132.374 29.9947 132.843 29.792C133.323 29.5893 133.851 29.488 134.427 29.488C135.003 29.488 135.526 29.5893 135.995 29.792C136.475 29.9947 136.88 30.288 137.211 30.672C137.542 31.0453 137.798 31.504 137.979 32.048C138.16 32.5813 138.251 33.1787 138.251 33.84C138.251 34.5013 138.16 35.104 137.979 35.648C137.798 36.1813 137.542 36.64 137.211 37.024C136.88 37.3973 136.475 37.6853 135.995 37.888C135.526 38.0907 135.003 38.192 134.427 38.192ZM134.427 36.752C135.024 36.752 135.504 36.5707 135.867 36.208C136.23 35.8347 136.411 35.28 136.411 34.544V33.136C136.411 32.4 136.23 31.8507 135.867 31.488C135.504 31.1147 135.024 30.928 134.427 30.928C133.83 30.928 133.35 31.1147 132.987 31.488C132.624 31.8507 132.443 32.4 132.443 33.136V34.544C132.443 35.28 132.624 35.8347 132.987 36.208C133.35 36.5707 133.83 36.752 134.427 36.752ZM143.649 38.192C143.052 38.192 142.518 38.096 142.049 37.904C141.58 37.7013 141.18 37.3867 140.849 36.96C140.518 36.5333 140.262 35.9947 140.081 35.344C139.91 34.6827 139.825 33.888 139.825 32.96C139.825 31.8293 139.905 30.8587 140.065 30.048C140.236 29.2267 140.497 28.5493 140.849 28.016C141.212 27.472 141.665 27.056 142.209 26.768C142.764 26.48 143.425 26.304 144.193 26.24L146.849 26V27.712L144.097 27.968C143.66 28.0107 143.292 28.096 142.993 28.224C142.705 28.352 142.465 28.5493 142.273 28.816C142.092 29.072 141.953 29.4187 141.857 29.856C141.761 30.2827 141.692 30.816 141.649 31.456H141.729C141.942 30.9013 142.23 30.4853 142.593 30.208C142.966 29.9307 143.468 29.792 144.097 29.792C144.588 29.792 145.036 29.888 145.441 30.08C145.857 30.2613 146.214 30.528 146.513 30.88C146.812 31.232 147.041 31.664 147.201 32.176C147.372 32.6773 147.457 33.2533 147.457 33.904C147.457 34.5547 147.366 35.1467 147.185 35.68C147.004 36.2027 146.748 36.6507 146.417 37.024C146.086 37.3973 145.686 37.6853 145.217 37.888C144.748 38.0907 144.225 38.192 143.649 38.192ZM143.649 36.752C144.257 36.752 144.737 36.5653 145.089 36.192C145.441 35.808 145.617 35.248 145.617 34.512V33.472C145.617 32.736 145.441 32.1813 145.089 31.808C144.737 31.424 144.257 31.232 143.649 31.232C143.009 31.232 142.518 31.4027 142.177 31.744C141.846 32.0853 141.681 32.544 141.681 33.12V34.512C141.681 35.248 141.857 35.808 142.209 36.192C142.561 36.5653 143.041 36.752 143.649 36.752ZM149.479 29.68H151.223V33.024H154.807V29.68H156.551V38H154.807V34.448H151.223V38H149.479V29.68ZM159.122 29.68H160.834V33.744L160.674 35.712H160.738L161.73 33.936L164.61 29.68H166.194V38H164.482V33.936L164.642 31.968H164.578L163.586 33.744L160.706 38H159.122V29.68ZM168.764 29.68H170.508V33.04H171.98L173.356 30.72C173.591 30.3253 173.826 30.0533 174.06 29.904C174.295 29.7547 174.594 29.68 174.956 29.68H175.804V31.104H174.876L173.82 32.864C173.66 33.1413 173.516 33.3333 173.388 33.44C173.271 33.5467 173.111 33.6267 172.908 33.68V33.744C173.122 33.7867 173.308 33.8667 173.468 33.984C173.628 34.0907 173.783 34.2827 173.932 34.56L175.052 36.576H175.964V38H174.972C174.62 38 174.316 37.92 174.06 37.76C173.815 37.6 173.58 37.3173 173.356 36.912L171.98 34.448H170.508V38H168.764V29.68ZM183.878 38C183.419 38 183.067 37.872 182.822 37.616C182.576 37.3493 182.427 37.0133 182.374 36.608H182.294C182.134 37.1307 181.84 37.5253 181.414 37.792C180.987 38.0587 180.47 38.192 179.862 38.192C178.998 38.192 178.331 37.968 177.862 37.52C177.403 37.072 177.174 36.4693 177.174 35.712C177.174 34.88 177.472 34.256 178.07 33.84C178.678 33.424 179.563 33.216 180.726 33.216H182.23V32.512C182.23 32 182.091 31.6053 181.814 31.328C181.536 31.0507 181.104 30.912 180.518 30.912C180.027 30.912 179.627 31.0187 179.318 31.232C179.008 31.4453 178.747 31.7173 178.534 32.048L177.494 31.104C177.771 30.6347 178.16 30.2507 178.662 29.952C179.163 29.6427 179.819 29.488 180.63 29.488C181.707 29.488 182.534 29.7387 183.11 30.24C183.686 30.7413 183.974 31.4613 183.974 32.4V36.576H184.854V38H183.878ZM180.358 36.864C180.902 36.864 181.35 36.7467 181.702 36.512C182.054 36.2667 182.23 35.9413 182.23 35.536V34.336H180.758C179.552 34.336 178.95 34.7093 178.95 35.456V35.744C178.95 36.1173 179.072 36.4 179.318 36.592C179.574 36.7733 179.92 36.864 180.358 36.864ZM186.643 29.68H188.755L191.107 33.616H191.139L193.491 29.68H195.507V38H193.795V31.824H193.731L193.187 32.848L191.075 36.368L188.963 32.848L188.419 31.824H188.355V38H186.643V29.68Z" fill="#FEFBF6"/>
</svg>
