<svg width="24" height="24" viewBox="0 0 24 24" fill="none" xmlns="http://www.w3.org/2000/svg">
<path fill-rule="evenodd" clip-rule="evenodd" d="M5.17217 12.0001C5.17217 11.2206 5.30154 10.4733 5.53273 9.77239L1.48835 6.68408C0.700104 8.28439 0.256104 10.0878 0.256104 12.0001C0.256104 13.9109 0.699728 15.713 1.48667 17.3123L5.52879 14.218C5.29985 13.5203 5.17217 12.7758 5.17217 12.0001Z" fill="#FBBC05"/>
<path fill-rule="evenodd" clip-rule="evenodd" d="M12.2731 4.90912C13.9664 4.90912 15.4958 5.50912 16.6975 6.49088L20.1933 3C18.0631 1.14544 15.332 0 12.2731 0C7.52409 0 3.44259 2.71575 1.48828 6.684L5.53247 9.77231C6.46434 6.94369 9.12066 4.90912 12.2731 4.90912Z" fill="#EA4335"/>
<path fill-rule="evenodd" clip-rule="evenodd" d="M12.2731 19.091C9.12084 19.091 6.46453 17.0564 5.53266 14.2278L1.48828 17.3155C3.44259 21.2843 7.52409 24.0001 12.2731 24.0001C15.2041 24.0001 18.0025 22.9593 20.1027 21.0093L16.2638 18.0415C15.1807 18.7238 13.8166 19.091 12.2731 19.091Z" fill="#34A853"/>
<path fill-rule="evenodd" clip-rule="evenodd" d="M23.7439 12.0001C23.7439 11.291 23.6346 10.5273 23.4707 9.81836H12.2732V14.4547H18.7187C18.3964 16.0355 17.5193 17.2507 16.2639 18.0415L20.1028 21.0093C22.3089 18.9618 23.7439 15.9115 23.7439 12.0001Z" fill="#4285F4"/>
<path fill-rule="evenodd" clip-rule="evenodd" d="M5.2717 0.0637207C2.3603 0.0637207 0 2.42389 0 5.3353V18.7282C0 21.6396 2.3603 23.9999 5.2717 23.9999H18.6645C21.576 23.9999 23.9362 21.6396 23.9362 18.7282V5.3353C23.9362 2.42389 21.576 0.0637207 18.6645 0.0637207H5.2717Z" fill="url(#paint0_linear)"/>
<path fill-rule="evenodd" clip-rule="evenodd" d="M6.33889 16.524C6.15328 16.524 5.96779 16.5475 5.78843 16.5937L5.00281 17.9543C4.7037 18.4725 4.87987 19.1304 5.39804 19.4297C5.88634 19.7116 6.49872 19.571 6.818 19.1202L7.90987 17.2291C7.84668 17.152 7.77609 17.0778 7.69566 17.0087C7.31983 16.6856 6.82936 16.524 6.33889 16.524ZM13.6044 8.61283C13.4037 8.68266 13.2113 8.86253 13.0544 9.15691C12.663 9.89172 12.638 11.0555 12.9814 11.844L17.1824 19.1202C17.5017 19.571 18.1141 19.7116 18.6024 19.4297C19.1207 19.1304 19.2969 18.4725 18.9977 17.9543L17.9431 16.1279H19.5309C20.0809 16.0768 20.5089 15.6167 20.5089 15.0529C20.5089 14.4545 20.0271 13.973 19.4287 13.973H16.6991L13.6044 8.61283ZM10.5776 4.48891C10.4036 4.49364 10.228 4.54074 10.0662 4.63419C9.548 4.93342 9.37158 5.59125 9.67081 6.10942L10.7562 7.98934L7.30145 13.973H4.406C4.03809 14.0068 3.72455 14.2236 3.55732 14.5323C3.47434 14.6855 3.42749 14.8609 3.42749 15.0479C3.42749 15.6461 3.90902 16.1279 4.50736 16.1279H14.2894C14.5734 15.5317 14.4346 14.8239 13.8698 14.3382C13.6797 14.1748 13.4735 13.973 13.226 13.973H9.78979L14.3299 6.10942C14.6289 5.59138 14.4526 4.93342 13.9344 4.63419C13.7724 4.54074 13.5969 4.49364 13.4229 4.48891C13.0719 4.47947 12.7276 4.64249 12.5142 4.94428L12.0002 5.83445L11.4863 4.94428C11.2729 4.64249 10.9286 4.47947 10.5776 4.48891Z" fill="white"/>
<defs>
<linearGradient id="paint0_linear" x1="11.9681" y1="22.411" x2="11.9681" y2="3.03431" gradientUnits="userSpaceOnUse">
<stop stop-color="#1C72F0"/>
<stop offset="1" stop-color="#1AC6FB"/>
</linearGradient>
</defs>
</svg>
