<svg width="23" height="24" viewBox="0 0 23 24" fill="none" xmlns="http://www.w3.org/2000/svg">
<path fill-rule="evenodd" clip-rule="evenodd" d="M16.4636 15.6041C19.2858 14.0594 21.4412 12.8795 21.6373 12.7721C22.2221 12.4519 22.8351 11.635 21.6373 10.982C21.2524 10.7717 19.1549 9.62805 16.4603 8.15796L12.7542 11.8925L16.4636 15.6041Z" fill="#FFE300"/>
<path fill-rule="evenodd" clip-rule="evenodd" d="M12.7539 11.8926L0.900146 23.8368C1.16784 23.8708 1.48981 23.7999 1.86015 23.5972C2.62685 23.1774 10.8607 18.6705 16.4636 15.6037L12.7539 11.8926Z" fill="#FF4E54"/>
<path fill-rule="evenodd" clip-rule="evenodd" d="M12.7539 11.8926L16.46 8.15804C16.46 8.15804 2.68477 0.642529 1.86009 0.192622C1.54311 0.0196372 1.19751 -0.0407321 0.891602 0.027391L12.7539 11.8926Z" fill="#00F085"/>
<path fill-rule="evenodd" clip-rule="evenodd" d="M12.754 11.8926L0.891508 0.0275879C0.401538 0.13688 0 0.560942 0 1.41331V22.4133C0 23.2158 0.315877 23.7806 0.9 23.8369L12.754 11.8926Z" fill="#00E0FF"/>
</svg>
