<svg width="212" height="64" viewBox="0 0 212 64" fill="none" xmlns="http://www.w3.org/2000/svg">
<path d="M101.45 24.1667C100.295 24.0001 99.1402 23.6667 97.6552 23.6667C96.0052 23.6667 95.3452 23.8334 94.6852 24.1667C93.8602 24.3334 92.7052 25.1667 92.7052 25.3334C92.5402 25.1667 91.5502 24.5001 90.7252 24.1667C89.9002 23.8334 88.9102 23.6667 87.5902 23.6667C86.2702 23.6667 84.7852 23.8334 84.2902 24.0001C83.1352 24.1667 82.1452 24.5001 80.8252 25.0001V25.8334C80.8252 25.8334 80.8252 28.1667 80.8252 31.5001V41.3334V41.6667H84.7852V41.5001V32.3334V27.5001C85.4452 27.3334 86.1052 27.1667 86.9302 27.1667C87.7552 27.1667 88.2502 27.1667 88.9102 27.6667C90.2302 28.3334 90.5602 29.6667 90.5602 32.5001C90.5602 35.0001 90.5602 41.8334 90.5602 41.8334H94.5202C94.5202 41.8334 94.5202 35.0001 94.5202 32.5001C94.5202 29.8334 94.8502 28.3334 96.1702 27.6667C96.6652 27.3334 96.9952 27.3334 97.6552 27.3334C98.4802 27.3334 99.8002 27.5001 100.295 27.6667V32.5001V41.6667H104.255V41.5001C104.255 37.8334 104.255 29.1667 104.255 26.0001V25.0001C103.76 24.6667 102.605 24.3334 101.45 24.1667Z" fill="#FEFBF6"/>
<path d="M158.045 21.1667C159.412 21.1667 160.52 20.0475 160.52 18.6667C160.52 17.286 159.412 16.1667 158.045 16.1667C156.678 16.1667 155.57 17.286 155.57 18.6667C155.57 20.0475 156.678 21.1667 158.045 21.1667Z" fill="#FEFBF6"/>
<path d="M107.72 33C107.72 31.5 107.885 30.1667 108.38 29C108.875 27.8333 109.37 26.8333 110.195 26.1667C111.02 25.5 111.845 24.8333 112.835 24.5C113.825 24.1667 114.815 24 115.805 24C118.115 24 120.095 24.6667 121.415 26.1667C122.735 27.6667 123.395 29.8333 123.395 32.8333C123.395 33 123.395 33.3333 123.395 33.5C123.395 33.8333 123.395 34 123.395 34.1667H112.01C112.175 35.5 112.67 36.6667 113.495 37.3333C114.32 38.1667 115.64 38.5 117.29 38.5C118.28 38.5 119.105 38.3333 119.93 38.1667C120.755 38 121.745 37.6667 122.405 37.3333V40.8333C122.24 41 121.91 41 121.415 41.1667C120.92 41.3333 120.425 41.6667 119.93 41.6667C119.435 41.6667 118.94 41.8333 118.28 41.8333C117.62 41.8333 117.125 42 116.465 42C114.98 42 113.66 41.8333 112.505 41.3333C111.35 40.8333 110.525 40.1667 109.7 39.5C109.04 38.6667 108.38 37.6667 108.05 36.6667C107.885 35.5 107.72 34.3333 107.72 33ZM119.27 31.1667C119.27 30.6667 119.27 30.1667 119.105 29.6667C118.94 29.1667 118.775 28.6667 118.445 28.3333C118.115 28 117.785 27.6667 117.29 27.5C116.795 27.3333 116.3 27.1667 115.805 27.1667C115.145 27.1667 114.65 27.3333 114.155 27.5C113.66 27.6667 113.33 28 113 28.5C112.67 28.8333 112.505 29.3333 112.175 29.8333C112.01 30.3333 111.845 30.8333 111.845 31.3333H119.27V31.1667Z" fill="#FEFBF6"/>
<path d="M141.71 40.9999C140.885 41.1666 139.895 41.4999 138.74 41.6666C137.585 41.8333 136.265 41.9999 134.945 41.9999C133.625 41.9999 132.305 41.8333 131.315 41.3333C130.16 40.8333 129.335 40.3333 128.51 39.4999C127.685 38.6666 127.19 37.8333 126.695 36.6666C126.365 35.4999 126.035 34.3333 126.035 32.8333C126.035 31.4999 126.2 30.1666 126.53 29.1666C126.86 27.9999 127.355 27.1666 128.015 26.3333C128.675 25.4999 129.5 24.8333 130.49 24.4999C131.48 24.1666 132.47 23.8333 133.79 23.8333C135.275 23.8333 136.265 24.1666 137.585 24.6666V15.8333H141.545V40.9999H141.71ZM130.16 32.8333C130.16 34.6666 130.655 35.9999 131.48 36.9999C132.305 37.9999 133.46 38.4999 134.945 38.4999C135.605 38.4999 136.1 38.4999 136.595 38.4999C137.09 38.4999 137.42 38.3333 137.75 38.3333V28.3333C137.42 28.1666 136.925 27.9999 136.265 27.6666C135.605 27.4999 134.945 27.3333 134.45 27.3333C133.13 27.3333 131.975 27.6666 131.315 28.6666C130.49 29.8333 130.16 31.1666 130.16 32.8333Z" fill="#FEFBF6"/>
<path d="M152.6 41.9999C150.785 41.9999 149.465 41.8333 148.64 41.4999C147.815 41.1666 147.155 40.8333 146.825 40.4999C146.33 39.9999 146 39.4999 145.835 38.8333C145.67 38.1666 145.505 37.3333 145.505 36.4999V15.8333H149.465V35.8333C149.465 36.3333 149.465 36.6666 149.63 36.9999C149.63 37.3333 149.795 37.6666 149.96 37.8333C150.125 37.9999 150.455 38.1666 150.785 38.3333C151.28 38.4999 151.775 38.4999 152.435 38.6666V41.9999H152.6Z" fill="#FEFBF6"/>
<path d="M160.025 41.6667H156.065V24.1667H160.025V41.6667Z" fill="#FEFBF6"/>
<path d="M180.155 32.8333C180.155 34.1666 179.99 35.4999 179.495 36.6666C179.165 37.8333 178.505 38.6666 177.68 39.4999C176.855 40.3333 176.03 40.8333 174.875 41.3333C173.72 41.8333 172.565 41.9999 171.245 41.9999C169.925 41.9999 168.605 41.8333 167.45 41.6666C166.295 41.4999 165.305 41.1666 164.48 40.9999V15.8333H168.44V24.8333C168.935 24.6666 169.43 24.3333 170.09 24.1666C170.75 23.9999 171.575 23.8333 172.235 23.8333C173.39 23.8333 174.545 23.9999 175.535 24.4999C176.525 24.9999 177.35 25.4999 177.845 26.3333C178.34 27.1666 179 28.1666 179.33 29.1666C179.99 30.3333 180.155 31.4999 180.155 32.8333ZM176.03 32.8333C176.03 31.1666 175.7 29.8333 175.04 28.8333C174.38 27.8333 173.225 27.3333 171.905 27.3333C171.245 27.3333 170.585 27.4999 170.09 27.6666C169.43 27.8333 169.1 28.1666 168.77 28.3333V38.3333C169.1 38.3333 169.43 38.4999 169.925 38.4999C170.42 38.4999 170.915 38.4999 171.575 38.4999C173.06 38.4999 174.215 37.9999 175.04 36.9999C175.7 35.9999 176.03 34.6666 176.03 32.8333Z" fill="#FEFBF6"/>
<path d="M194.18 27.9999C193.85 27.8333 192.695 27.6666 192.2 27.4999C191.54 27.3333 190.88 27.3333 190.22 27.3333C189.725 27.3333 189.23 27.3333 188.735 27.4999C188.24 27.6666 187.91 27.6666 187.745 27.6666V41.6666H183.785V24.9999C184.61 24.6666 185.435 24.4999 186.755 24.1666C187.91 23.8333 189.23 23.8333 190.55 23.8333C190.88 23.8333 191.045 23.8333 191.54 23.8333C191.87 23.8333 192.2 23.8333 192.53 23.9999C192.86 23.9999 193.19 24.1666 193.52 24.1666C193.85 24.1666 194.18 24.3333 194.345 24.3333L194.18 27.9999Z" fill="#FEFBF6"/>
<path d="M202.43 23.6667C203.75 23.6667 204.905 23.8334 205.73 24.1667C206.555 24.5001 207.38 25.0001 207.875 25.5001C208.37 26.1667 208.865 26.8334 209.03 27.6667C209.195 28.5001 209.36 29.5001 209.36 30.5001V41.0001C208.7 41.1667 207.875 41.3334 206.555 41.5001C205.235 41.6667 203.915 41.8334 202.43 41.8334C201.44 41.8334 200.45 41.6667 199.625 41.5001C198.8 41.3334 197.975 41.0001 197.48 40.5001C196.82 40.0001 196.325 39.5001 195.995 38.8334C195.665 38.1667 195.5 37.1667 195.5 36.1667C195.5 35.1667 195.665 34.3334 195.995 33.6667C196.325 33.0001 196.82 32.3334 197.645 32.0001C198.305 31.5001 199.13 31.3334 199.955 31.0001C200.78 30.8334 201.77 30.6667 202.76 30.6667C203.255 30.6667 203.585 30.6667 204.08 30.6667C204.575 30.6667 205.07 30.8334 205.565 31.0001V30.3334C205.565 29.8334 205.565 29.5001 205.4 29.0001C205.235 28.5001 205.07 28.1667 204.905 27.8334C204.575 27.5001 204.245 27.3334 203.75 27.1667C203.255 27.0001 202.76 26.8334 202.1 26.8334C201.11 26.8334 200.285 26.8334 199.625 27.0001C198.8 27.1667 197.81 27.5001 197.315 27.6667V24.1667C197.81 24.0001 198.635 23.8334 199.46 23.6667C200.285 23.8334 201.275 23.6667 202.43 23.6667ZM202.76 38.8334C203.915 38.8334 204.905 38.8334 205.565 38.6667V34.3334C205.4 34.3334 205.07 34.1667 204.575 34.1667C204.08 34.0001 203.75 34.0001 203.255 34.0001C202.76 34.0001 202.43 34.0001 201.935 34.1667C201.44 34.1667 201.11 34.3334 200.78 34.5001C200.45 34.6667 200.12 35.0001 199.955 35.1667C199.79 35.5001 199.625 35.8334 199.625 36.3334C199.625 37.3334 199.955 38.0001 200.45 38.3334C200.945 38.6667 201.77 38.8334 202.76 38.8334Z" fill="#FEFBF6"/>
<path d="M42.672 64H21.328C3.552 64 0 56.896 0 42.672V21.328C0 7.104 3.552 0 21.328 0H42.656C60.448 0 64 7.104 64 21.328V42.656C64 56.896 60.448 64 42.672 64Z" fill="url(#paint0_linear)"/>
<path opacity="0.25" d="M39.0559 60.4479H24.8319C9.59991 60.7999 3.50391 56.8959 3.50391 42.6719V21.3279C3.50391 7.10394 9.59991 3.19994 24.8319 3.55194H39.0559C54.3999 3.19994 60.3999 7.10394 60.3999 21.3279V42.6559C60.3999 56.8959 54.3999 60.7999 39.0559 60.4479Z" fill="url(#paint1_linear)"/>
<path d="M35.6636 20.5599L10.0156 15.6799V46.2079H17.3436C20.9436 46.2079 26.4476 48.0319 28.2716 53.5359H35.8396L35.6956 29.0079L35.6636 20.5599Z" fill="#5B17AB"/>
<path d="M48.4156 13.968C46.4156 13.536 44.1756 13.104 41.2316 13.088C38.3196 13.056 37.0716 13.504 35.6156 14C34.1436 14.512 32.2396 16.032 31.9996 16.208C31.7596 16.032 29.9996 14.624 28.3836 14C26.7676 13.376 24.8956 13.136 22.5276 13.152C20.1596 13.168 17.3276 13.6 16.2716 13.824C14.3036 14.256 12.4156 14.752 10.0156 15.68V17.344C10.0156 17.344 10.0156 21.616 10.0156 27.856V45.888V46.224H17.4396V45.888V29.008V20C18.5436 19.6 19.7916 19.312 21.4876 19.312C23.1836 19.312 23.9196 19.456 25.1836 20.096C27.6476 21.344 28.2716 23.92 28.2876 29.008H35.7116C35.7116 23.968 36.2876 21.312 38.8156 20.096C39.8236 19.6 40.3356 19.536 41.6636 19.392C43.1196 19.248 45.5836 19.6 46.5596 20V29.008V45.872V46.208H53.9836V45.872C53.9836 39.184 53.9836 23.328 53.9836 17.344V15.68C52.5436 15.152 50.4156 14.4 48.4156 13.968Z" fill="#FEFBF6"/>
<defs>
<linearGradient id="paint0_linear" x1="-18.1003" y1="32" x2="45.8997" y2="32" gradientUnits="userSpaceOnUse">
<stop stop-color="#731DD8"/>
<stop offset="1" stop-color="#5B17AB"/>
</linearGradient>
<linearGradient id="paint1_linear" x1="-12.5841" y1="31.9999" x2="44.3047" y2="31.9999" gradientUnits="userSpaceOnUse">
<stop stop-color="#1A1D1D"/>
<stop offset="1" stop-color="#1A1D1D"/>
</linearGradient>
</defs>
</svg>
