<svg width="652" height="304" viewBox="0 0 652 304" fill="none" xmlns="http://www.w3.org/2000/svg">
<path d="M632 16H24V280H632V16Z" fill="url(#paint0_radial)"/>
<path d="M192 229L48 157L408 67L552 139L192 229Z" fill="url(#paint1_linear)" fill-opacity="0.15"/>
<path d="M96 215L88 211L120 203L128 207L96 215Z" fill="#FEFBF6"/>
<path d="M144 203L136 199L168 191L176 195L144 203Z" fill="#FEFBF6"/>
<path d="M192 191L184 187L216 179L224 183L192 191Z" fill="#FEFBF6"/>
<path d="M240 179L232 175L264 167L272 171L240 179Z" fill="#FEFBF6"/>
<path d="M288 167L280 163L312 155L320 159L288 167Z" fill="#FEFBF6"/>
<path d="M336 155L328 151L360 143L368 147L336 155Z" fill="#FEFBF6"/>
<path d="M384 143L376 139L408 131L416 135L384 143Z" fill="#FEFBF6"/>
<path d="M432 131L424 127L456 119L464 123L432 131Z" fill="#FEFBF6"/>
<path d="M480 119L472 115L504 107L512 111L480 119Z" fill="#FEFBF6"/>
<path d="M528 107L520 103L552 95L560 99L528 107Z" fill="#FEFBF6"/>
<path d="M240 200L144 153L400 90L496 137L240 200Z" fill="#FEFBF6"/>
<path d="M144 164.056V153L240 200V217L148.422 171.211C145.712 169.856 144 167.086 144 164.056Z" fill="url(#paint2_linear)"/>
<path d="M240 198L148 153L399 92L489 137L240 198Z" fill="#1A1D1D"/>
<path d="M179 145.5L148 153L240 198L270.5 190.5L179 145.5Z" fill="#FEFBF6" fill-opacity="0.35"/>
<path d="M240 200L496 137V146.754C496 150.425 493.502 153.625 489.94 154.515L240 217V200Z" fill="url(#paint3_linear)"/>
<path d="M478.5 150.43V149.548C478.5 148.251 477.285 147.297 476.025 147.605L457.525 152.127C456.63 152.346 456 153.148 456 154.07V154.952C456 156.249 457.215 157.203 458.475 156.895L476.975 152.373C477.87 152.154 478.5 151.352 478.5 150.43Z" fill="#FEFBF6"/>
<g filter="url(#filter0_d)">
<path d="M377.285 128.653C377.256 128.669 377.206 128.676 377.159 128.672L372.389 128.216C371.668 128.147 370.924 128.199 370.296 128.362C369.579 128.549 369.112 128.856 369.018 129.205C368.922 129.554 369.212 129.897 369.811 130.145L380.709 134.664C381.233 134.881 381.931 135 382.661 135C382.766 135 382.87 134.998 382.976 134.993C383.818 134.953 384.559 134.76 385.009 134.463C385.403 134.202 385.528 133.894 385.362 133.595L384.262 131.617C384.251 131.598 384.269 131.577 384.308 131.565L389.175 130.045C389.346 129.992 389.589 129.999 389.741 130.062L398.52 133.702C399.116 133.949 399.909 134.085 400.752 134.085C401.595 134.085 402.389 133.949 402.985 133.702L404.463 133.089C405.373 132.711 405.64 132.149 405.143 131.657L399.758 126.322C399.59 126.155 399.712 125.961 400.055 125.849L407.131 123.55C408.816 123.002 409.858 122.179 409.986 121.293C410.115 120.406 409.321 119.538 407.807 118.91C406.293 118.281 404.197 117.952 402.059 118.006C399.921 118.059 397.937 118.491 396.616 119.19L391.07 122.124C390.801 122.266 390.333 122.316 389.931 122.247L377.064 120.013C375.877 119.807 374.521 119.918 373.612 120.295L372.133 120.909C370.902 121.419 370.902 122.25 372.133 122.76L380.912 126.401C381.063 126.464 381.081 126.564 380.952 126.635L377.285 128.653ZM383.009 125.53L374.231 121.89C374.157 121.859 374.157 121.809 374.231 121.778L375.71 121.165C375.765 121.142 375.847 121.135 375.919 121.148L388.786 123.381C390.416 123.664 392.316 123.459 393.405 122.882L398.952 119.948C399.75 119.526 400.948 119.265 402.238 119.233C403.529 119.201 404.794 119.399 405.709 119.779C406.623 120.158 407.103 120.683 407.025 121.218C406.947 121.753 406.319 122.25 405.301 122.58L398.225 124.88C396.834 125.332 396.34 126.12 397.021 126.795L402.406 132.131C402.436 132.161 402.42 132.195 402.365 132.217L400.887 132.831C400.812 132.861 400.691 132.861 400.617 132.831L391.838 129.19C390.646 128.696 388.734 128.641 387.388 129.061L382.522 130.581C381.548 130.885 381.096 131.4 381.37 131.893L382.313 133.589L372.402 129.48L376.493 129.87C377.68 129.984 378.922 129.797 379.655 129.393L383.321 127.375C384.335 126.817 384.201 126.024 383.009 125.53Z" fill="#F06E6B"/>
</g>
<path d="M264 133V77L328 109V166L264 133Z" fill="#E9E2D6"/>
<path d="M252 137V49L316 81V170L252 137Z" fill="#F7F1E7"/>
<path d="M272 69L264 65V125L272 129V69Z" fill="url(#paint4_linear)"/>
<path d="M284 97L276 93V153L284 157V97Z" fill="url(#paint5_linear)"/>
<path d="M296 97L288 93V153L296 157V97Z" fill="url(#paint6_linear)"/>
<path d="M236 141V85L300 117V174L236 141Z" fill="#FEFBF6"/>
<path d="M272 113L240 97V109L272 125V113Z" fill="#1A1D1D" fill-opacity="0.15"/>
<path d="M264 125L240 113V115L264 127V125Z" fill="#1A1D1D" fill-opacity="0.15"/>
<path d="M256 127L240 119V121L256 129V127Z" fill="#1A1D1D" fill-opacity="0.15"/>
<path d="M260 135L240 125V127L260 137V135Z" fill="#1A1D1D" fill-opacity="0.15"/>
<path d="M283.5 145C285.985 145 288 139.404 288 132.5C288 125.596 285.985 120 283.5 120C281.015 120 279 125.596 279 132.5C279 139.404 281.015 145 283.5 145Z" fill="#1A1D1D" fill-opacity="0.15"/>
<path d="M283 142C284.105 142 285 137.747 285 132.5C285 127.253 284.105 123 283 123C281.895 123 281 127.253 281 132.5C281 137.747 281.895 142 283 142Z" fill="#FEFBF6"/>
<defs>
<filter id="filter0_d" x="337" y="90.0002" width="105" height="80.9997" filterUnits="userSpaceOnUse" color-interpolation-filters="sRGB">
<feFlood flood-opacity="0" result="BackgroundImageFix"/>
<feColorMatrix in="SourceAlpha" type="matrix" values="0 0 0 0 0 0 0 0 0 0 0 0 0 0 0 0 0 0 127 0"/>
<feOffset dy="4"/>
<feGaussianBlur stdDeviation="16"/>
<feColorMatrix type="matrix" values="0 0 0 0 0.941176 0 0 0 0 0.431373 0 0 0 0 0.419608 0 0 0 0.75 0"/>
<feBlend mode="normal" in2="BackgroundImageFix" result="effect1_dropShadow"/>
<feBlend mode="normal" in="SourceGraphic" in2="effect1_dropShadow" result="shape"/>
</filter>
<radialGradient id="paint0_radial" cx="0" cy="0" r="1" gradientUnits="userSpaceOnUse" gradientTransform="translate(328 148) rotate(90) scale(132 304)">
<stop stop-color="#F0A938" stop-opacity="0.05"/>
<stop offset="1" stop-color="#F4BE67" stop-opacity="0"/>
</radialGradient>
<linearGradient id="paint1_linear" x1="424" y1="110.5" x2="436.802" y2="168.933" gradientUnits="userSpaceOnUse">
<stop stop-color="#FEFBF6" stop-opacity="0"/>
<stop offset="1" stop-color="#FEFBF6"/>
</linearGradient>
<linearGradient id="paint2_linear" x1="144" y1="185" x2="240" y2="185" gradientUnits="userSpaceOnUse">
<stop stop-color="#F06E6B"/>
<stop offset="1" stop-color="#EB403C"/>
</linearGradient>
<linearGradient id="paint3_linear" x1="240" y1="177" x2="496" y2="177" gradientUnits="userSpaceOnUse">
<stop stop-color="#F06E6B"/>
<stop offset="1" stop-color="#EB403C"/>
</linearGradient>
<linearGradient id="paint4_linear" x1="264" y1="97" x2="272" y2="97" gradientUnits="userSpaceOnUse">
<stop stop-color="#49ACA9"/>
<stop offset="1" stop-color="#3A8885"/>
</linearGradient>
<linearGradient id="paint5_linear" x1="276" y1="125" x2="284" y2="125" gradientUnits="userSpaceOnUse">
<stop stop-color="#F4BE67"/>
<stop offset="1" stop-color="#F0A938"/>
</linearGradient>
<linearGradient id="paint6_linear" x1="288" y1="125" x2="296" y2="125" gradientUnits="userSpaceOnUse">
<stop stop-color="#49ACA9"/>
<stop offset="1" stop-color="#3A8885"/>
</linearGradient>
</defs>
</svg>
