<svg width="24" height="24" viewBox="0 0 24 24" fill="none" xmlns="http://www.w3.org/2000/svg">
<path fill-rule="evenodd" clip-rule="evenodd" d="M3 18V6H3.2618C3.25729 6.53293 3.46565 7.07639 3.93803 7.49572L10.8931 13.6696C11.1329 13.8825 11.4424 14 11.763 14C12.0741 14 12.375 13.8893 12.612 13.6877L19.8583 7.52336C20.353 7.10249 20.5711 6.54605 20.5663 6H21L21 18H3ZM18.5624 6L5.26575 6L11.7726 11.776L18.5624 6ZM18.5623 4H21C22.1046 4 23 4.89543 23 6V18C23 19.1046 22.1046 20 21 20H3C1.89543 20 1 19.1046 1 18V6C1 4.89543 1.89543 4 3 4H5.26575H18.5623Z" fill="#FEFBF6"/>
</svg>
