<svg width="24" height="24" viewBox="0 0 24 24" fill="none" xmlns="http://www.w3.org/2000/svg">
<path fill-rule="evenodd" clip-rule="evenodd" d="M5.2717 0.0637207C2.3603 0.0637207 0 2.42389 0 5.3353V18.7282C0 21.6396 2.3603 23.9999 5.2717 23.9999H18.6645C21.576 23.9999 23.9362 21.6396 23.9362 18.7282V5.3353C23.9362 2.42389 21.576 0.0637207 18.6645 0.0637207H5.2717Z" fill="url(#paint0_linear)"/>
<path fill-rule="evenodd" clip-rule="evenodd" d="M6.33914 16.524C6.15352 16.524 5.96803 16.5475 5.78867 16.5937L5.00305 17.9543C4.70395 18.4725 4.88012 19.1304 5.39829 19.4297C5.88659 19.7116 6.49897 19.571 6.81824 19.1202L7.91012 17.2291C7.84693 17.152 7.77633 17.0778 7.6959 17.0087C7.32008 16.6856 6.82961 16.524 6.33914 16.524ZM13.6046 8.61283C13.4039 8.68266 13.2116 8.86253 13.0547 9.15691C12.6633 9.89172 12.6382 11.0555 12.9816 11.844L17.1827 19.1202C17.5019 19.571 18.1143 19.7116 18.6026 19.4297C19.1209 19.1304 19.2971 18.4725 18.998 17.9543L17.9434 16.1279H19.5311C20.0812 16.0768 20.5091 15.6167 20.5091 15.0529C20.5091 14.4545 20.0273 13.973 19.429 13.973H16.6994L13.6046 8.61283ZM10.5778 4.48891C10.4038 4.49364 10.2283 4.54074 10.0664 4.63419C9.54824 4.93342 9.37182 5.59125 9.67105 6.10942L10.7564 7.98934L7.30169 13.973H4.40625C4.03833 14.0068 3.7248 14.2236 3.55756 14.5323C3.47459 14.6855 3.42773 14.8609 3.42773 15.0479C3.42773 15.6461 3.90927 16.1279 4.50761 16.1279H14.2896C14.5737 15.5317 14.4348 14.8239 13.87 14.3382C13.6799 14.1748 13.4738 13.973 13.2262 13.973H9.79003L14.3301 6.10942C14.6291 5.59138 14.4528 4.93342 13.9346 4.63419C13.7726 4.54074 13.5971 4.49364 13.4231 4.48891C13.0722 4.47947 12.7279 4.64249 12.5144 4.94428L12.0005 5.83445L11.4865 4.94428C11.2732 4.64249 10.9289 4.47947 10.5778 4.48891Z" fill="white"/>
<defs>
<linearGradient id="paint0_linear" x1="11.9681" y1="22.411" x2="11.9681" y2="3.03431" gradientUnits="userSpaceOnUse">
<stop stop-color="#1C72F0"/>
<stop offset="1" stop-color="#1AC6FB"/>
</linearGradient>
</defs>
</svg>
