<svg width="652" height="304" viewBox="0 0 652 304" fill="none" xmlns="http://www.w3.org/2000/svg">
<path d="M176 250L32 178L392 88L536 160L176 250Z" fill="url(#paint0_linear)" fill-opacity="0.15"/>
<path d="M628 20H24V284H628V20Z" fill="url(#paint1_radial)"/>
<path d="M424 116L376 92L424 80L472 104L424 116Z" fill="#3A8885"/>
<path d="M424 116L376 92V164L424 188V116Z" fill="#49ACA9"/>
<path d="M424 116L472 104V176L424 188V116Z" fill="url(#paint2_linear)"/>
<g opacity="0.5">
<path opacity="0.5" d="M424 84L376 60L424 48L472.089 72L424 84Z" fill="#3A8885"/>
<path opacity="0.5" d="M424 84L376 60V84L424 108V84Z" fill="#49ACA9"/>
<path opacity="0.5" d="M424 84L472 72V96L424 108V84Z" fill="url(#paint3_linear)"/>
</g>
<path d="M312 112L264 88L312 76L360 100L312 112Z" fill="#3A8885"/>
<path d="M312 112L264 88V192L312 216V112Z" fill="#49ACA9"/>
<path d="M312 112L360 100V204L312 216V112Z" fill="url(#paint4_linear)"/>
<g opacity="0.5">
<path opacity="0.5" d="M312 80L264 56L312 44L360.089 68L312 80Z" fill="#3A8885"/>
<path opacity="0.5" d="M312 80L264 56V80L312 104V80Z" fill="#49ACA9"/>
<path opacity="0.5" d="M312 80L360 68V92L312 104V80Z" fill="url(#paint5_linear)"/>
</g>
<path d="M232 172L184 148L232 136L280.089 160L232 172Z" fill="#EB403C"/>
<path d="M232 172L184 148V212L232 236V172Z" fill="#F06E6B"/>
<path d="M232 172L280 160V224L232 236V172Z" fill="url(#paint6_linear)"/>
<defs>
<linearGradient id="paint0_linear" x1="408" y1="131.5" x2="420.802" y2="189.933" gradientUnits="userSpaceOnUse">
<stop stop-color="#FEFBF6" stop-opacity="0"/>
<stop offset="1" stop-color="#FEFBF6"/>
</linearGradient>
<radialGradient id="paint1_radial" cx="0" cy="0" r="1" gradientUnits="userSpaceOnUse" gradientTransform="translate(326 152) rotate(90) scale(132 302)">
<stop stop-color="#F0A938" stop-opacity="0.05"/>
<stop offset="1" stop-color="#F4BE67" stop-opacity="0"/>
</radialGradient>
<linearGradient id="paint2_linear" x1="472" y1="146" x2="424" y2="146" gradientUnits="userSpaceOnUse">
<stop stop-color="#49ACA9"/>
<stop offset="1" stop-color="#3A8885"/>
</linearGradient>
<linearGradient id="paint3_linear" x1="472" y1="90" x2="424" y2="90" gradientUnits="userSpaceOnUse">
<stop stop-color="#49ACA9"/>
<stop offset="1" stop-color="#3A8885"/>
</linearGradient>
<linearGradient id="paint4_linear" x1="360" y1="158" x2="312" y2="158" gradientUnits="userSpaceOnUse">
<stop stop-color="#49ACA9"/>
<stop offset="1" stop-color="#3A8885"/>
</linearGradient>
<linearGradient id="paint5_linear" x1="360" y1="86" x2="312" y2="86" gradientUnits="userSpaceOnUse">
<stop stop-color="#49ACA9"/>
<stop offset="1" stop-color="#3A8885"/>
</linearGradient>
<linearGradient id="paint6_linear" x1="280" y1="198" x2="232" y2="198" gradientUnits="userSpaceOnUse">
<stop stop-color="#F06E6B"/>
<stop offset="1" stop-color="#EB403C"/>
</linearGradient>
</defs>
</svg>
