<svg width="652" height="304" viewBox="0 0 652 304" fill="none" xmlns="http://www.w3.org/2000/svg">
<path d="M628 20H24V284H628V20Z" fill="url(#paint0_radial)"/>
<path d="M172 237L28 165L388 75L532 147L172 237Z" fill="url(#paint1_linear)" fill-opacity="0.15"/>
<path d="M484 143L444 123V139L484 159V143Z" fill="#EDE7DE"/>
<path d="M404 133L444 123V139L404 149V133Z" fill="#E7DED0"/>
<path d="M444 169L404 149L444 139L484 159L444 169Z" fill="#BEB8AD"/>
<path d="M444 153L404 133V149L444 169V153Z" fill="#EDE7DE"/>
<path d="M444 153L484 143V159L444 169V153Z" fill="#E7DED0"/>
<path d="M400 148L320 108V140L400 180V148Z" fill="#BEB8AD"/>
<path d="M240 128L320 108V140L240 160V128Z" fill="#E7DED0"/>
<path d="M320 200L240 160L320 140L400 180L320 200Z" fill="#FEFBF6"/>
<path d="M320 168L240 128V160L320 200V168Z" fill="#EDE7DE"/>
<path d="M320 168L400 148V180L320 200V168Z" fill="#E7DED0"/>
<path d="M248 112V132L320 168L324 167V150L248 112Z" fill="url(#paint2_linear)"/>
<path d="M256 182L204 156V176.8L256 202.8V182Z" fill="#EDE7DE"/>
<path d="M152 169L204 156V176.8L152 189.8V169Z" fill="#E7DED0"/>
<path d="M204 215.8L152 189.8L204 176.8L256 202.8L204 215.8Z" fill="#BEB8AD"/>
<path d="M204 195L152 169V189.8L204 215.8V195Z" fill="#EDE7DE"/>
<path d="M204 195L256 182V202.8L204 215.8V195Z" fill="#E7DED0"/>
<path d="M314 96L248 112L324 150L390 134L314 96Z" fill="#F4BE67"/>
<path d="M390 134L324 150V167L390 150.5V134Z" fill="#F0A938"/>
<path d="M322.891 123.592L313.534 122.362C313.588 121.004 313.198 119.87 312.363 118.96C311.529 118.05 309.95 117.442 307.626 117.136L306.769 117.024C305.057 116.799 303.804 116.862 303.012 117.213C302.221 117.546 301.784 118.034 301.699 118.678C301.603 119.412 302.013 120.075 302.931 120.669C303.808 121.257 305.009 121.743 306.535 122.125L302.985 124.989C301.783 124.667 300.632 124.279 299.53 123.825C298.39 123.348 297.404 122.8 296.573 122.181C295.701 121.557 295.025 120.859 294.546 120.086C294.067 119.313 293.889 118.462 294.011 117.531C294.135 116.583 294.554 115.765 295.267 115.076C295.982 114.369 296.926 113.811 298.1 113.401C299.274 112.991 300.655 112.736 302.244 112.635C303.834 112.534 305.546 112.605 307.381 112.846C309.093 113.071 310.645 113.411 312.037 113.867C313.39 114.3 314.568 114.809 315.569 115.396C316.532 115.959 317.301 116.579 317.876 117.255C318.453 117.913 318.821 118.58 318.981 119.256L323.385 119.835L322.891 123.592ZM338.129 123.628C338.005 124.576 337.446 125.195 336.455 125.483C335.465 125.753 334.318 125.803 333.013 125.631L331.056 125.374C329.751 125.203 328.676 124.861 327.831 124.35C326.947 123.815 326.568 123.074 326.692 122.126C326.817 121.177 327.375 120.559 328.367 120.271C329.359 119.983 330.487 119.922 331.751 120.088L333.708 120.345C335.013 120.516 336.107 120.869 336.99 121.404C337.877 121.921 338.256 122.662 338.129 123.628Z" fill="#6A6B69"/>
<defs>
<radialGradient id="paint0_radial" cx="0" cy="0" r="1" gradientUnits="userSpaceOnUse" gradientTransform="translate(326 152) rotate(90) scale(132 302)">
<stop stop-color="#F0A938" stop-opacity="0.05"/>
<stop offset="1" stop-color="#F4BE67" stop-opacity="0"/>
</radialGradient>
<linearGradient id="paint1_linear" x1="404" y1="118.5" x2="416.802" y2="176.933" gradientUnits="userSpaceOnUse">
<stop stop-color="#FEFBF6" stop-opacity="0"/>
<stop offset="1" stop-color="#FEFBF6"/>
</linearGradient>
<linearGradient id="paint2_linear" x1="248" y1="140" x2="324" y2="140" gradientUnits="userSpaceOnUse">
<stop stop-color="#F4BE67"/>
<stop offset="1" stop-color="#F0A938"/>
</linearGradient>
</defs>
</svg>
