<svg width="652" height="304" viewBox="0 0 652 304" fill="none" xmlns="http://www.w3.org/2000/svg">
<path d="M628 20H24V284H628V20Z" fill="url(#paint0_radial)"/>
<path d="M210 263L66 191L426 101L570 173L210 263Z" fill="url(#paint1_linear)" fill-opacity="0.15"/>
<path d="M458 169L378 129L458 109L538 149L458 169Z" fill="#FEFBF6"/>
<path d="M458 169L378 129V161.5L458 201V169Z" fill="#F5F3EE"/>
<path d="M434 117L386 129L398 135L446 123L434 117Z" fill="#1A1D1D" fill-opacity="0.15"/>
<path d="M422 132L402 137L408 140L428 135L422 132Z" fill="#1A1D1D" fill-opacity="0.15"/>
<path d="M474 125L410 141L412 142L476 126L474 125Z" fill="#1A1D1D" fill-opacity="0.15"/>
<path d="M446 137L416 144L418 145L448 138L446 137Z" fill="#1A1D1D" fill-opacity="0.15"/>
<path d="M462 137L422 147L424 148L464 138L462 137Z" fill="#1A1D1D" fill-opacity="0.15"/>
<path d="M466 139L426 149L428 150L468 140L466 139Z" fill="#1A1D1D" fill-opacity="0.15"/>
<path d="M458 169L538 149V181L458 201V169Z" fill="#EBE8E2"/>
<path d="M338 171V43L418 83V211L338 171Z" fill="#D2CBC0"/>
<path d="M386 95L306 55L338 47L418 87L386 95Z" fill="#FEFBF6"/>
<path d="M306 179V51L386 91V219L306 179Z" fill="#FEFBF6"/>
<path d="M306 179V51L386 91V219L306 179Z" fill="#E4DFD6"/>
<path d="M386 91L418 83V211L386 219V91Z" fill="#D2CBC0"/>
<path d="M394 107V103L410 99V100.778V103L394 107Z" fill="#FEFBF6"/>
<path d="M326 50L322 51L370 75L374 74L326 50Z" fill="#1A1D1D" fill-opacity="0.05"/>
<path d="M334 48L330 49L354 61L358 60L334 48Z" fill="#1A1D1D" fill-opacity="0.05"/>
<path d="M318 52L314 53L350 71L354 70L318 52Z" fill="#1A1D1D" fill-opacity="0.05"/>
<path d="M290 183V87L370 127V223L290 183Z" fill="url(#paint2_linear)"/>
<path d="M338 139L258 99L290 91L370 131L338 139Z" fill="#FEFBF6"/>
<path d="M258 191V95L338 135V231L258 191Z" fill="#FEFBF6"/>
<path d="M258 191V95L338 135V231L258 191Z" fill="url(#paint3_linear)" fill-opacity="0.5"/>
<path d="M338 135L370 127V223L338 231V135Z" fill="url(#paint4_linear)"/>
<path d="M286 92L282 93L330 117L334 116L286 92Z" fill="#1A1D1D" fill-opacity="0.05"/>
<path d="M270 96L266 97L290 109L294 108L270 96Z" fill="#1A1D1D" fill-opacity="0.05"/>
<path d="M278 94L274 95L310 113L314 112L278 94Z" fill="#1A1D1D" fill-opacity="0.05"/>
<path d="M242 195V67L322 107V235L242 195Z" fill="url(#paint5_linear)"/>
<path d="M290 119L210 79L242 71L322 111L290 119Z" fill="#FEFBF6"/>
<path d="M210 203V75L290 115V243L210 203Z" fill="#FEFBF6"/>
<path d="M210 203V75L290 115V243L210 203Z" fill="url(#paint6_linear)" fill-opacity="0.5"/>
<path d="M290 115L322 107V235L290 243V115Z" fill="url(#paint7_linear)"/>
<path d="M298 123V119L306 117V118.778V121L298 123Z" fill="#FEFBF6"/>
<path d="M298 139V131L314 127V128.778V135L298 139Z" fill="#FEFBF6"/>
<path d="M298 145V141L310 138V139.778V142L298 145Z" fill="#FEFBF6"/>
<path d="M238 72L234 73L282 97L286 96L238 72Z" fill="#1A1D1D" fill-opacity="0.05"/>
<path d="M222 76L218 77L242 89L246 88L222 76Z" fill="#1A1D1D" fill-opacity="0.05"/>
<path d="M230 74L226 75L262 93L266 92L230 74Z" fill="#1A1D1D" fill-opacity="0.05"/>
<path d="M226 71V77L234 81V75L226 71Z" fill="#1A1D1D"/>
<path d="M194 207V79L274 119V247L194 207Z" fill="url(#paint8_linear)"/>
<path d="M242 131L162 91L194 83L274 123L242 131Z" fill="#FEFBF6"/>
<path d="M162 215V87L242 127V255L162 215Z" fill="#FEFBF6"/>
<path d="M162 215V87L242 127V255L162 215Z" fill="url(#paint9_linear)" fill-opacity="0.5"/>
<path d="M242 127L274 119V247L242 255V127Z" fill="url(#paint10_linear)"/>
<path d="M250 135V131L266 127V128.778V131L250 135Z" fill="#FEFBF6"/>
<path d="M250 143V139L266 135V136.778V139L250 143Z" fill="#FEFBF6"/>
<path d="M182 86L178 87L226 111L230 110L182 86Z" fill="#1A1D1D" fill-opacity="0.05"/>
<path d="M174 88L170 89L194 101L198 100L174 88Z" fill="#1A1D1D" fill-opacity="0.05"/>
<path d="M190 84L186 85L222 103L226 102L190 84Z" fill="#1A1D1D" fill-opacity="0.05"/>
<path d="M218 97V103L226 107V101L218 97Z" fill="url(#paint11_linear)"/>
<path d="M250 77V83L258 87V81L250 77Z" fill="#1A1D1D"/>
<defs>
<radialGradient id="paint0_radial" cx="0" cy="0" r="1" gradientUnits="userSpaceOnUse" gradientTransform="translate(326 152) rotate(90) scale(132 302)">
<stop stop-color="#F0A938" stop-opacity="0.05"/>
<stop offset="1" stop-color="#F4BE67" stop-opacity="0"/>
</radialGradient>
<linearGradient id="paint1_linear" x1="442" y1="144.5" x2="454.802" y2="202.933" gradientUnits="userSpaceOnUse">
<stop stop-color="#FEFBF6" stop-opacity="0"/>
<stop offset="1" stop-color="#FEFBF6"/>
</linearGradient>
<linearGradient id="paint2_linear" x1="290" y1="155" x2="370" y2="155" gradientUnits="userSpaceOnUse">
<stop stop-color="#49ACA9"/>
<stop offset="1" stop-color="#3A8885"/>
</linearGradient>
<linearGradient id="paint3_linear" x1="258" y1="179" x2="338" y2="179" gradientUnits="userSpaceOnUse">
<stop stop-color="#49ACA9"/>
<stop offset="1" stop-color="#3A8885"/>
</linearGradient>
<linearGradient id="paint4_linear" x1="338" y1="179" x2="370" y2="179" gradientUnits="userSpaceOnUse">
<stop stop-color="#49ACA9"/>
<stop offset="1" stop-color="#3A8885"/>
</linearGradient>
<linearGradient id="paint5_linear" x1="242" y1="151" x2="322" y2="151" gradientUnits="userSpaceOnUse">
<stop stop-color="#49ACA9"/>
<stop offset="1" stop-color="#3A8885"/>
</linearGradient>
<linearGradient id="paint6_linear" x1="210" y1="159" x2="290" y2="159" gradientUnits="userSpaceOnUse">
<stop stop-color="#49ACA9"/>
<stop offset="1" stop-color="#3A8885"/>
</linearGradient>
<linearGradient id="paint7_linear" x1="290" y1="175" x2="322" y2="175" gradientUnits="userSpaceOnUse">
<stop stop-color="#49ACA9"/>
<stop offset="1" stop-color="#3A8885"/>
</linearGradient>
<linearGradient id="paint8_linear" x1="194" y1="163" x2="274" y2="163" gradientUnits="userSpaceOnUse">
<stop stop-color="#F4BE67"/>
<stop offset="1" stop-color="#F0A938"/>
</linearGradient>
<linearGradient id="paint9_linear" x1="162" y1="171" x2="242" y2="171" gradientUnits="userSpaceOnUse">
<stop stop-color="#F4BE67"/>
<stop offset="1" stop-color="#F0A938"/>
</linearGradient>
<linearGradient id="paint10_linear" x1="242" y1="187" x2="274" y2="187" gradientUnits="userSpaceOnUse">
<stop stop-color="#F4BE67"/>
<stop offset="1" stop-color="#F0A938"/>
</linearGradient>
<linearGradient id="paint11_linear" x1="218" y1="102" x2="226" y2="102" gradientUnits="userSpaceOnUse">
<stop stop-color="#F06E6B"/>
<stop offset="1" stop-color="#EB403C"/>
</linearGradient>
</defs>
</svg>
