<svg width="652" height="304" viewBox="0 0 652 304" fill="none" xmlns="http://www.w3.org/2000/svg">
<path d="M628 20H24V284H628V20Z" fill="url(#paint0_radial)"/>
<path d="M242 181L146 133L210 117L370 197L306 213L242 181Z" fill="#FEFBF6" fill-opacity="0.35"/>
<path d="M226 157L178 133L210 125L290 165L258 173L226 157Z" fill="#FEFBF6" fill-opacity="0.9"/>
<path d="M218 159L170 135L174 134L254 174L250 175L218 159Z" fill="#FEFBF6" fill-opacity="0.9"/>
<path d="M322 193L290 177L306 173L338 189L322 193Z" fill="#FEFBF6" fill-opacity="0.9"/>
<path d="M211.705 238L50 157.056L447.525 57L598 139.068L416.818 184.599L211.705 238Z" fill="url(#paint1_linear)" fill-opacity="0.15"/>
<path d="M322 161L226 113L290 97L450 177L386 193L322 161Z" fill="#FEFBF6" fill-opacity="0.15"/>
<path d="M306 137L258 113L290 105L370 145L338 153L306 137Z" fill="#FEFBF6" fill-opacity="0.65"/>
<path d="M298 139L250 115L254 114L334 154L330 155L298 139Z" fill="#FEFBF6" fill-opacity="0.65"/>
<path d="M402 173L370 157L386 153L418 169L402 173Z" fill="#FEFBF6" fill-opacity="0.65"/>
<path d="M402 141L306 93L370 77L530 157L466 173L402 141Z" fill="#FEFBF6" fill-opacity="0.05"/>
<path d="M386 117L338 93L370 85L450 125L418 133L386 117Z" fill="#FEFBF6" fill-opacity="0.35"/>
<path d="M378 119L330 95L334 94L414 134L410 135L378 119Z" fill="#FEFBF6" fill-opacity="0.35"/>
<path d="M482 153L450 137L466 133L498 149L482 153Z" fill="#FEFBF6" fill-opacity="0.35"/>
<path d="M472 112C489.673 112 504 97.6731 504 80C504 62.3269 489.673 48 472 48C454.327 48 440 62.3269 440 80C440 97.6731 454.327 112 472 112Z" fill="#1A1D1D"/>
<path d="M456 80C456 101 472 112 472 112C454.327 112 440 97.6731 440 80C440 62.3269 454.327 48 472 48C472 48 456 59 456 80Z" fill="#FEFBF6"/>
<path d="M160 184C177.673 184 192 169.673 192 152C192 134.327 177.673 120 160 120C142.327 120 128 134.327 128 152C128 169.673 142.327 184 160 184Z" fill="url(#paint2_linear)"/>
<path fill-rule="evenodd" clip-rule="evenodd" d="M347.091 48.2305C347.094 47.6783 347.544 47.2329 348.096 47.2359C350.821 47.2503 353.515 47.3056 356.171 47.3968C356.723 47.4158 357.155 47.8786 357.136 48.4306C357.117 48.9825 356.654 49.4146 356.103 49.3957C353.465 49.305 350.791 49.2502 348.086 49.2358C347.534 49.2329 347.088 48.7828 347.091 48.2305ZM341.028 48.29C341.042 48.8421 340.605 49.301 340.053 49.315C337.404 49.3819 334.731 49.4906 332.04 49.6453C331.489 49.677 331.016 49.2557 330.985 48.7043C330.953 48.153 331.374 47.6803 331.926 47.6486C334.638 47.4927 337.332 47.3831 340.003 47.3156C340.555 47.3017 341.014 47.7379 341.028 48.29ZM363.196 48.724C363.231 48.1728 363.705 47.7538 364.257 47.7881C366.99 47.9582 369.675 48.1633 372.304 48.3974C372.854 48.4464 373.261 48.9321 373.212 49.4822C373.163 50.0323 372.677 50.4385 372.127 50.3895C369.514 50.1569 366.847 49.9532 364.132 49.7842C363.581 49.7499 363.162 49.2752 363.196 48.724ZM324.945 49.1533C324.996 49.7033 324.591 50.19 324.041 50.2404C321.392 50.4832 318.731 50.7735 316.063 51.1153C315.515 51.1854 315.014 50.7982 314.944 50.2504C314.874 49.7026 315.261 49.2016 315.809 49.1315C318.502 48.7866 321.186 48.4937 323.858 48.2488C324.408 48.1984 324.895 48.6033 324.945 49.1533ZM379.252 50.0993C379.315 49.5506 379.811 49.157 380.359 49.2202C383.108 49.5367 385.782 49.8809 388.371 50.2452C388.918 50.3221 389.299 50.8278 389.222 51.3747C389.145 51.9216 388.64 52.3026 388.093 52.2257C385.519 51.8637 382.862 51.5216 380.131 51.2071C379.582 51.1439 379.188 50.6479 379.252 50.0993ZM308.957 51.1318C309.048 51.6765 308.68 52.1919 308.135 52.2828C306.819 52.5026 305.502 52.7358 304.184 52.9828C302.803 53.2419 301.428 53.5235 300.062 53.8266C299.523 53.9462 298.989 53.606 298.869 53.0669C298.75 52.5277 299.09 51.9936 299.629 51.8741C301.016 51.5663 302.412 51.2802 303.816 51.0171C305.146 50.7676 306.477 50.5321 307.806 50.3101C308.351 50.2192 308.866 50.5871 308.957 51.1318ZM395.194 52.2901C395.284 51.7453 395.799 51.3769 396.344 51.4673C399.127 51.9291 401.785 52.4068 404.302 52.8887C404.844 52.9926 405.2 53.5165 405.096 54.0589C404.992 54.6013 404.468 54.9569 403.926 54.8531C401.424 54.3741 398.783 53.8993 396.017 53.4403C395.472 53.3499 395.104 52.835 395.194 52.2901ZM292.599 54.6682C292.752 55.1989 292.446 55.7532 291.916 55.9063C289.209 56.6874 286.537 57.5479 283.901 58.4786C283.381 58.6625 282.809 58.3894 282.625 57.8686C282.442 57.3479 282.715 56.7766 283.235 56.5927C285.906 55.6496 288.616 54.7771 291.361 53.9847C291.892 53.8316 292.446 54.1376 292.599 54.6682ZM411.039 55.2742C411.156 54.7346 411.689 54.3924 412.229 54.51C415.146 55.1456 417.786 55.7647 420.114 56.339C420.651 56.4713 420.978 57.0132 420.846 57.5494C420.714 58.0856 420.172 58.4131 419.636 58.2808C417.324 57.7106 414.702 57.0957 411.803 56.4641C411.263 56.3466 410.921 55.8138 411.039 55.2742ZM426.712 59.0931C426.862 58.5616 427.415 58.2525 427.947 58.4027C429.196 58.7558 430.158 59.0413 430.81 59.239C431.136 59.3378 431.384 59.4147 431.551 59.4671C431.634 59.4933 431.698 59.5134 431.741 59.527L431.79 59.5426L431.807 59.5481C432.332 59.7178 432.621 60.2816 432.452 60.8072C432.282 61.3327 431.718 61.6212 431.193 61.4516L426.712 59.0931ZM276.586 60.1909C276.798 60.7009 276.557 61.2862 276.047 61.4981C273.439 62.5819 270.872 63.7292 268.35 64.93C267.852 65.1674 267.255 64.9557 267.018 64.457C266.78 63.9584 266.992 63.3617 267.49 63.1243C270.042 61.9096 272.639 60.7486 275.279 59.6512C275.789 59.4393 276.375 59.6809 276.586 60.1909ZM261.242 67.3774C261.503 67.8644 261.319 68.4704 260.832 68.7309C258.332 70.0686 255.882 71.4525 253.486 72.8721C253.011 73.1536 252.397 72.9966 252.116 72.5215C251.834 72.0463 251.991 71.4329 252.466 71.1514C254.887 69.7177 257.362 68.3194 259.889 66.9674C260.376 66.7069 260.982 66.8905 261.242 67.3774ZM246.617 75.9339C246.918 76.3972 246.786 77.0165 246.322 77.3171C243.927 78.8705 241.595 80.4511 239.33 82.0465C238.878 82.3645 238.254 82.2562 237.936 81.8046C237.618 81.3531 237.727 80.7292 238.178 80.4113C240.464 78.8019 242.817 77.207 245.234 75.6391C245.697 75.3386 246.317 75.4706 246.617 75.9339ZM232.722 85.6194C233.056 86.0592 232.97 86.6866 232.53 87.0205C230.231 88.7659 228.014 90.5137 225.885 92.2482C225.456 92.597 224.826 92.5326 224.478 92.1043C224.129 91.6761 224.193 91.0462 224.622 90.6974C226.768 88.9493 229.003 87.1874 231.321 85.4275C231.761 85.0936 232.388 85.1795 232.722 85.6194ZM219.522 96.2779C219.885 96.6945 219.841 97.3262 219.424 97.6887C217.209 99.617 215.113 101.506 213.145 103.333C212.74 103.709 212.107 103.685 211.732 103.28C211.356 102.876 211.379 102.243 211.784 101.867C213.768 100.027 215.879 98.1231 218.111 96.1801C218.528 95.8175 219.159 95.8613 219.522 96.2779ZM207.053 107.763C207.441 108.156 207.438 108.789 207.045 109.177C204.848 111.351 202.882 113.374 201.164 115.191C200.784 115.592 200.151 115.61 199.75 115.231C199.349 114.851 199.331 114.218 199.71 113.817C201.443 111.984 203.425 109.946 205.639 107.756C206.031 107.367 206.665 107.37 207.053 107.763ZM195.364 120.047C195.78 120.41 195.823 121.041 195.46 121.458C194.578 122.47 193.906 123.264 193.456 123.804C193.231 124.074 193.061 124.28 192.948 124.419C192.891 124.488 192.849 124.54 192.821 124.574L192.79 124.613L192.781 124.624C192.436 125.055 191.807 125.126 191.375 124.781C190.944 124.436 190.874 123.807 191.219 123.375L191.22 123.374L191.232 123.36L191.266 123.317C191.296 123.28 191.34 123.226 191.399 123.154C191.516 123.01 191.69 122.799 191.919 122.523C192.379 121.972 193.06 121.167 193.953 120.143C194.316 119.727 194.948 119.684 195.364 120.047Z" fill="#C9AFE9"/>
<defs>
<radialGradient id="paint0_radial" cx="0" cy="0" r="1" gradientUnits="userSpaceOnUse" gradientTransform="translate(326 152) rotate(90) scale(132 302)">
<stop stop-color="#F0A938" stop-opacity="0.05"/>
<stop offset="1" stop-color="#F4BE67" stop-opacity="0"/>
</radialGradient>
<linearGradient id="paint1_linear" x1="458.826" y1="105.601" x2="473.486" y2="170.722" gradientUnits="userSpaceOnUse">
<stop stop-color="#FEFBF6" stop-opacity="0"/>
<stop offset="1" stop-color="#FEFBF6"/>
</linearGradient>
<linearGradient id="paint2_linear" x1="128" y1="152" x2="192" y2="152" gradientUnits="userSpaceOnUse">
<stop stop-color="#F4BE67"/>
<stop offset="1" stop-color="#F0A938"/>
</linearGradient>
</defs>
</svg>
